<?xml version="1.0" encoding="utf-8"?>
<!-- Generator: Adobe Illustrator 27.5.0, SVG Export Plug-In . SVG Version: 6.00 Build 0)  -->
<svg version="1.1" xmlns="http://www.w3.org/2000/svg" xmlns:xlink="http://www.w3.org/1999/xlink" x="0px" y="0px"
	 viewBox="0 0 3710 3710" style="enable-background:new 0 0 3710 3710;" xml:space="preserve">
<g id="Illustration">
	<g>
		<linearGradient id="SVGID_1_" gradientUnits="userSpaceOnUse" x1="3400.5032" y1="3587.6799" x2="1381.968" y2="1408.9435">
			<stop  offset="0" style="stop-color:#DAE3FE"/>
			<stop  offset="1" style="stop-color:#E9EFFD"/>
		</linearGradient>
		<path style="fill:url(#SVGID_1_);" d="M3114.327,2347.861c-276.256,650.521-1005.483,929.935-1576.843,882.294
			c-156.005-13.008-469.889-39.18-714.973-272.672c-470.667-448.407-398.18-1385.702,52.383-1937.53
			c58.023-71.064,459.651-547.185,1085.513-540.812c458.222,4.666,779.844,265.436,818.952,297.923
			c49.404,41.04,158.369,138.563,256.573,293.278C3266.676,1433.867,3286.959,1941.351,3114.327,2347.861z"/>
		<g>
			<g>
				<path style="fill:#91B3FA;" d="M1069.063,2918.635c5.437,0,9.582-4.864,8.677-10.224
					c-9.012-53.325-61.841-297.187-274.581-299.126c-188.477-1.718-302.848,92.434-342.714,132.234
					c-7.122,7.111-3.961,19.298,5.743,21.965c25.737,7.074,68.572,24.294,96.058,64.192c41.447,60.163,148.889,50.716,215.833-31.98
					c66.317-81.923,231.523-130.995,282.366,115.863C1061.29,2915.663,1064.871,2918.635,1069.063,2918.635L1069.063,2918.635z"/>
				<path style="fill:#7D97F4;" d="M556.064,1515.327c-4.731-10.401-19.979-9.09-22.946,1.945
					c-26.91,100.065-82.458,398.748,163.08,540.105c297.527,171.289,304.709,93.816,341.81,395.403
					c31.932,259.573,42.827,417.422,45.243,456.364c0.332,5.348,4.761,9.491,10.119,9.491h0c5.736,0,10.331-4.725,10.135-10.458
					c-2.806-81.725-23.251-621.797-81.661-885.961C917.95,1552.36,674.675,1776.076,556.064,1515.327z"/>
				<path style="fill:#91B3FA;" d="M741.775,771.988c-1.87-10.574-17.156-10.327-18.731,0.295
					c-7.906,53.327-22.99,121.389-51.225,165.82c-52.401,82.458-147.592,382.739,113.768,532.443
					c261.36,149.704,325.628,228.948,323.687,516.431c-1.775,262.75,14.042,823.458,16.776,917.991
					c0.221,7.628,6.468,13.667,14.099,13.667l0,0c7.774,0,14.083-6.273,14.106-14.048c0.347-122.963,2.078-1016.804-20.338-1233.391
					C1098.396,1328,808.996,1152.189,741.775,771.988z"/>
				<path style="fill:#7D97F4;" d="M1549.755,473.829c-0.46-10.483-14.36-13.745-19.52-4.607
					c-24.905,44.107-80.959,119.345-193.13,173.801c-168.257,81.685-470.22,250.623-290.154,619.697
					c187.201,383.696,120.749,651.708,133.649,785.886c11.945,124.257,24.524,764.499,26.319,858.5
					c0.122,6.418,5.36,11.528,11.78,11.528l0,0c6.623,0,11.946-5.454,11.779-12.075c-2.61-103.683-21.131-842.907-21.469-961.256
					c-0.364-127.329-31.856-563.034,81.946-721.928C1401.051,1069.653,1567.271,872.426,1549.755,473.829z"/>
				<path style="opacity:0.47;fill:#FFFFFF;" d="M746.236,999.162c-2.675,8.39-4.7,17.751-6.077,26.861
					c-0.837,4.566-1.257,9.205-1.714,13.828c-0.599,4.604-0.63,9.267-0.839,13.899c-0.346,18.536,0.555,37.134,4.371,55.257
					c7.147,36.316,23.129,70.415,44.544,100.557c2.719,3.748,5.198,7.669,8.105,11.282l9.057,10.596l9.041,10.602l9.713,10.187
					c13.161,13.424,27.091,26.213,41.368,38.747c28.554,25.063,58.517,49.18,86.762,75.682
					c28.329,26.341,54.836,55.256,77.128,87.314c11.021,16.105,21.085,32.841,30.18,50.079l6.462,13.103
					c2.199,4.347,4.256,8.759,6.133,13.248l5.827,13.378l5.24,13.607c3.671,9.007,6.428,18.324,9.604,27.494
					c2.906,9.253,5.51,18.595,8.139,27.919c2.249,9.417,4.721,18.788,6.64,28.264c1.782,9.504,4.019,18.926,5.418,28.482
					c6.466,38.089,10.099,76.526,11.574,114.965c0.108,2.828-2.096,5.21-4.925,5.317c-2.763,0.107-5.102-2.027-5.309-4.763
					c-5.669-75.86-18.003-151.749-45.836-221.996l-5.282-13.11l-5.843-12.856c-1.88-4.317-3.935-8.547-6.126-12.709l-6.431-12.549
					c-9.035-16.487-18.973-32.442-29.813-47.774c-11.057-15.178-22.841-29.821-35.413-43.82
					c-12.553-14.018-26.054-27.23-39.917-40.107c-27.749-25.756-57.619-49.533-86.754-74.805
					c-14.558-12.64-28.927-25.673-42.651-39.513l-10.154-10.538l-9.544-11.285l-9.528-11.292c-3.064-3.858-5.715-8.052-8.588-12.064
					c-22.645-32.243-39.222-69.486-45.329-108.69l-2.005-14.71c-0.544-4.912-0.637-9.873-0.97-14.8
					c-0.415-4.929-0.294-9.873-0.18-14.812c0.068-4.938,0.225-9.868,0.816-14.776c0.499-4.91,0.828-9.828,1.734-14.686
					c0.763-4.87,1.495-9.738,2.654-14.541c2.001-9.719,4.73-18.985,8.639-28.566c1.133-2.776,4.302-4.107,7.078-2.975
					c2.636,1.077,3.97,3.988,3.128,6.657L746.236,999.162z"/>
				<path style="opacity:0.47;fill:#FFFFFF;" d="M561.981,1570.038c2.894,16.818,8.785,33.607,16.342,49.117
					c7.777,15.501,16.803,30.298,27.39,43.958c21.125,27.363,47.544,50.28,76.375,69.381c14.27,9.939,29.667,17.723,45.094,26.196
					l23.805,12.699c7.859,4.383,15.553,9.086,23.335,13.614c30.764,18.745,60.415,39.587,87.667,63.418
					c26.97,24.138,51.682,50.831,73.225,79.927l15.362,22.377c2.682,3.648,4.775,7.674,7.098,11.551l6.831,11.71l6.821,11.707
					l5.968,12.16c3.894,8.141,8.055,16.159,11.715,24.392c6.492,16.818,14.021,33.243,18.933,50.584
					c2.69,8.58,5.549,17.117,7.889,25.785l6.185,26.215l3.085,13.094l2.242,13.257l4.426,26.498
					c1.616,8.806,2.041,17.776,3.031,26.655l2.577,26.677c0.186,1.925-1.225,3.638-3.151,3.824c-1.853,0.178-3.507-1.12-3.796-2.933
					l-0.038-0.24c-2.753-17.505-4.993-35.062-8.111-52.44l-5.377-25.932l-2.707-12.949l-3.535-12.741l-7.054-25.452
					c-2.605-8.399-5.807-16.602-8.566-24.939c-5.175-16.824-12.91-32.637-19.578-48.839c-3.744-7.917-7.973-15.6-11.927-23.408
					l-6.047-11.649l-6.876-11.175l-6.866-11.171c-2.332-3.696-4.431-7.539-7.114-11l-15.327-21.25
					c-21.401-27.589-45.278-53.198-71.634-76.157c-26.67-22.593-55.252-42.929-85.301-61.015
					c-7.598-4.387-15.093-8.944-22.772-13.198l-23.292-12.338c-15.696-8.71-31.955-17.26-46.815-27.815
					c-30.014-20.604-57.245-45.978-78.076-76.143c-10.187-15.209-19.055-31.327-25.528-48.406
					c-3.206-8.549-5.984-17.238-8.057-26.115c-2.239-8.868-3.482-17.809-3.819-27.197c-0.059-1.645,1.227-3.026,2.871-3.085
					c1.509-0.053,2.796,1.024,3.044,2.474L561.981,1570.038z"/>
				<path style="opacity:0.47;fill:#FFFFFF;" d="M548.234,2713.926c14.49-12.424,30.218-22.947,46.564-32.592
					c8.188-4.781,16.531-9.316,25.062-13.491c8.488-4.265,17.154-8.198,25.981-11.751c17.575-7.319,35.779-13.165,54.293-17.881
					c18.567-4.534,37.532-7.541,56.626-9.136c19.093-1.632,38.386-1.419,57.465,0.722c19.065,2.093,37.999,5.893,56.181,11.963
					l6.843,2.174l6.677,2.648c4.432,1.805,8.925,3.447,13.286,5.389c8.59,4.192,17.331,8.047,25.398,13.156
					c16.637,9.289,31.807,20.842,46.237,32.979c1.12,0.943,1.264,2.615,0.322,3.735c-0.875,1.041-2.381,1.238-3.488,0.504
					l-0.129-0.086c-15.462-10.323-30.829-20.683-47.597-28.406c-8.138-4.314-16.816-7.427-25.213-11.076
					c-4.278-1.64-8.671-2.974-12.99-4.477l-6.498-2.191l-6.636-1.744c-17.535-5.197-35.687-7.884-53.822-9.477
					c-4.552-0.263-9.078-0.858-13.644-0.858l-13.677-0.217c-9.12,0.323-18.238,0.555-27.328,1.5
					c-36.418,3.2-72.148,12.645-106.694,25.212c-34.515,12.691-68.147,28.694-100.026,47.629l-0.112,0.067
					c-1.26,0.749-2.888,0.334-3.637-0.926C547.01,2716.17,547.271,2714.75,548.234,2713.926z"/>
				<path style="opacity:0.33;fill:#FFFFFF;" d="M1485.373,586.964c-11.711,16.443-24.363,32.057-37.535,47.276
					c-13.065,15.311-26.869,29.965-40.916,44.394l-10.66,10.701l-10.876,10.482c-7.211,7.037-14.627,13.86-22.103,20.618
					c-15.008,13.452-30.369,26.529-46.089,39.182c-7.889,6.287-15.998,12.3-23.988,18.464c-8.056,6.081-16.345,11.853-24.509,17.795
					c-16.33,11.47-32.156,22.903-47.112,35.639c-29.969,25.193-56.17,54.578-75.819,88.047
					c-9.806,16.72-18.075,34.372-24.402,52.769c-6.369,18.384-10.897,37.407-14.23,56.677c-3.464,19.268-4.796,38.925-5.538,58.583
					l-0.22,14.776c-0.065,4.928,0.212,9.862,0.3,14.797c0.11,9.871,0.901,19.733,1.48,29.607
					c6.202,79.046,25.51,156.992,48.796,233.378c0.339,1.104-0.281,2.272-1.384,2.611c-1.06,0.326-2.185-0.243-2.572-1.267
					c-14.012-37.558-26.24-75.825-36.484-114.709c-10.242-38.872-18.293-78.483-22.445-118.742
					c-4.139-40.216-4.592-81.144,1.295-121.661c2.982-20.23,7.639-40.281,14.066-59.823c6.434-19.543,14.962-38.434,25.156-56.355
					c20.367-35.968,48.367-67.064,79.412-93.508c15.478-13.267,32.018-25.444,48.458-36.926c8.066-5.756,16.258-11.341,24.227-17.24
					c7.907-5.983,15.932-11.813,23.747-17.922c7.745-6.199,15.736-12.092,23.419-18.378c7.645-6.329,15.488-12.43,22.98-18.951
					c15.189-12.8,30.306-25.73,44.912-39.233c14.837-13.265,29.231-27.025,43.51-40.93c14.164-13.997,28.343-28.11,41.848-42.744
					l0.036-0.039c0.783-0.85,2.106-0.904,2.955-0.12C1485.871,584.937,1485.976,586.118,1485.373,586.964z"/>
			</g>
			
				<linearGradient id="SVGID_00000037689718216968978060000003224470405135802288_" gradientUnits="userSpaceOnUse" x1="951.2581" y1="3071.4849" x2="1357.8876" y2="3071.4849">
				<stop  offset="0" style="stop-color:#4F52FF"/>
				<stop  offset="1" style="stop-color:#4042E2"/>
			</linearGradient>
			<path style="fill:url(#SVGID_00000037689718216968978060000003224470405135802288_);" d="M985.211,2895.266h333.023
				c24.927,0,43.573,23.462,38.945,47.954c-19.885,105.242-60.158,198.223-102.018,276.01
				c-9.352,17.378-27.459,28.475-47.194,28.475h-108.669c-20.037,0-38.413-10.896-48.064-28.456
				c-52.249-95.073-77.786-189.414-99.092-281.727C947.233,2916.253,963.383,2895.266,985.211,2895.266z"/>
		</g>
		<g>
			<g>
				
					<linearGradient id="SVGID_00000135656711617569763310000001704327117471152294_" gradientUnits="userSpaceOnUse" x1="-3583.9744" y1="2349.2554" x2="-2800.6445" y2="2074.5811" gradientTransform="matrix(-1 0 0 1 -761.4195 0)">
					<stop  offset="0" style="stop-color:#4F52FF"/>
					<stop  offset="1" style="stop-color:#4042E2"/>
				</linearGradient>
				<path style="fill:url(#SVGID_00000135656711617569763310000001704327117471152294_);" d="M2544.58,2685.679
					c14.511-266.294,43.847-509.29,107.595-655.363c20.36-46.652,59.613-82.147,107.978-98.014
					c130.956-42.961,267.156-23.485,244.721,97.451l-289.994,752.749L2544.58,2685.679z"/>
				<g>
					<g>
						
							<linearGradient id="SVGID_00000021832379887382574980000000706276289825019820_" gradientUnits="userSpaceOnUse" x1="3040.3223" y1="2843.2793" x2="3313.8623" y2="2843.2793" gradientTransform="matrix(1 0 0 1 -1104.4598 0)">
							<stop  offset="0" style="stop-color:#FEBBBA"/>
							<stop  offset="1" style="stop-color:#FF928E"/>
						</linearGradient>
						<path style="fill:url(#SVGID_00000021832379887382574980000000706276289825019820_);" d="M2071.691,2501.969
							c0,0-57.166,8.862-121.439,51.828c-10.115,6.761-15.664,18.549-14.14,30.62c7.697,60.962,39.34,258.277,143.686,450.996
							c5.502,10.162,7.083,21.992,4.656,33.29l-18.129,84.365l-33.619,31.523h86.594l57.656-156.028l-24.654-7.796
							c-19.115-6.045-32.23-23.626-32.577-43.672l-2.893-167.375c2.468-74.569-45.723-126.02-45.723-126.02l138.293-6.728
							L2071.691,2501.969z"/>
						
							<linearGradient id="SVGID_00000011712601322357984990000011089193740385114556_" gradientUnits="userSpaceOnUse" x1="3283.2324" y1="2606.8931" x2="3182.4624" y2="3238.3845" gradientTransform="matrix(1 0 0 1 -1104.4598 0)">
							<stop  offset="0" style="stop-color:#09005D"/>
							<stop  offset="1" style="stop-color:#1A0F91"/>
						</linearGradient>
						<path style="fill:url(#SVGID_00000011712601322357984990000011089193740385114556_);" d="M1998.893,3199.81
							c-7.886,10.321,84.879,23.94,131.746,1.365c0,0,64.968-113.035,64.968-171.234c0,0-5.157-11.866-43.304-9.176
							c0,0-21.814,133.84-44.848,148.832c-23.034,14.992-64.444,1.517-64.444,1.517S2010.529,3184.581,1998.893,3199.81z"/>
						
							<linearGradient id="SVGID_00000118386134363776861220000003127620065136785848_" gradientUnits="userSpaceOnUse" x1="2759.7056" y1="2868.0864" x2="3336.9297" y2="2868.0864" gradientTransform="matrix(1 0 0 1 -1104.4598 0)">
							<stop  offset="0" style="stop-color:#FEBBBA"/>
							<stop  offset="1" style="stop-color:#FF928E"/>
						</linearGradient>
						<path style="fill:url(#SVGID_00000118386134363776861220000003127620065136785848_);" d="M2232.47,2692.273
							c-0.736-1.273-148.895-17.815-148.895-17.815s4.849,45.048-10.305,107.061c-15.154,62.013-232.683,330.685-232.683,330.685
							l22.808,72.304c-70.521,24.566-139.891,28.493-208.151,12.522l141.353-84.826c0,0,132.29-450.822,213.322-531.247
							l148.511-51.38L2232.47,2692.273z"/>
						
							<linearGradient id="SVGID_00000070105457432347043100000004462002708682238345_" gradientUnits="userSpaceOnUse" x1="2984.4043" y1="1674.9762" x2="2755.9929" y2="2004.1576">
							<stop  offset="0" style="stop-color:#FF928E"/>
							<stop  offset="1" style="stop-color:#FE7062"/>
						</linearGradient>
						<path style="fill:url(#SVGID_00000070105457432347043100000004462002708682238345_);" d="M2590.92,2455.025
							c0,0,85.361,126.964,92.365,184.878c7.004,57.915-23.382,81.448-112.948,85.329s-427.276,3.817-427.276,3.817
							c-116.68-86.546-122.13-137.208-144.642-202.449c0,0,17.121-29.16,226.561-40.028
							C2266.4,2484.424,2590.92,2455.025,2590.92,2455.025z"/>
						
							<linearGradient id="SVGID_00000174564552281951270200000004778980559314862213_" gradientUnits="userSpaceOnUse" x1="2947.9329" y1="2553.3879" x2="2847.1631" y2="3184.8787" gradientTransform="matrix(1 0 0 1 -1104.4598 0)">
							<stop  offset="0" style="stop-color:#09005D"/>
							<stop  offset="1" style="stop-color:#1A0F91"/>
						</linearGradient>
						<path style="fill:url(#SVGID_00000174564552281951270200000004778980559314862213_);" d="M1854.91,3166.741
							c0,0,25.657,24.851,8.325,52.5c0,0-203.249,36.026-258.432,19.681c0,0,11.458-26.153,73.597-55.921l-4.585,3.519
							c-5.802,4.454-2.399,13.733,4.904,13.316C1719.665,3197.502,1804.403,3190,1854.91,3166.741z"/>
					</g>
					<g>
						
							<linearGradient id="SVGID_00000126297076460446156330000016587388847916238229_" gradientUnits="userSpaceOnUse" x1="3825.8765" y1="943.4193" x2="3730.6558" y2="1443.6658" gradientTransform="matrix(0.9849 0.1732 -0.1732 0.9849 -969.506 -75.1231)">
							<stop  offset="0" style="stop-color:#09005D"/>
							<stop  offset="1" style="stop-color:#1A0F91"/>
						</linearGradient>
						<path style="fill:url(#SVGID_00000126297076460446156330000016587388847916238229_);" d="M2343.505,1605.382
							c176.991,1.013,233.244,155.408,222.151,183.818c-1.471,3.769,1.629,7.721,5.659,7.362c20.663-1.84,65.428-0.868,86.49,37.74
							c18.596,34.087-4.192,59.158-21.451,72.085c-4.168,3.121-2.285,9.712,2.916,9.965c37.08,1.802,116.093,14.57,116,90.675
							c-0.087,70.97-51.427,81.956-80.813,82.431c-4.972,0.08-7.209,6.203-3.535,9.554c12.598,11.49,25.756,32.968,12.665,68.485
							c-20.52,55.667-132.42,31.131-145.463,28.064c-0.826-0.194-1.573-0.574-2.226-1.115l-162.447-134.741
							c-1.266-1.051-1.997-2.611-1.993-4.256l0.581-216.934c0.004-1.755,0.844-3.402,2.261-4.437l-88.489-186.823
							C2244.187,1633.451,2341.419,1605.37,2343.505,1605.382z"/>
						
							<linearGradient id="SVGID_00000124153224378110716580000016387041915341399949_" gradientUnits="userSpaceOnUse" x1="3363.219" y1="1726.5376" x2="2899.6792" y2="1961.666">
							<stop  offset="0" style="stop-color:#FF928E"/>
							<stop  offset="1" style="stop-color:#FE7062"/>
						</linearGradient>
						<path style="fill:url(#SVGID_00000124153224378110716580000016387041915341399949_);" d="M2343.725,2405.903
							c0,0-81.501-110.442-118.831-180.663c-20.178-37.958-20.63-83.335-1.442-121.804c35.04-70.254,87.645-140.148,93.313-151.47
							c8.687-17.354,118.324,2.719,118.324,2.719s191.347,178.189,234.445,430.593l-100.535,12.907
							c0,0-39.756-104.543-84.899-174.504c0,0,74.019,144.345,68.241,197.09L2343.725,2405.903z"/>
						
							<linearGradient id="SVGID_00000065797153459914869720000002427216530582886285_" gradientUnits="userSpaceOnUse" x1="3668.2974" y1="1569.275" x2="3629.3335" y2="1319.2583" gradientTransform="matrix(0.9849 0.1732 -0.1732 0.9849 -969.506 -75.1231)">
							<stop  offset="0" style="stop-color:#FEBBBA"/>
							<stop  offset="1" style="stop-color:#FF928E"/>
						</linearGradient>
						<path style="fill:url(#SVGID_00000065797153459914869720000002427216530582886285_);" d="M2321.496,1847.272
							c0.476,4.009,12.419,104.03,14.313,106.396c1.895,2.366,61.913,16.283,93.862,1.808l-46.404-150.823L2321.496,1847.272z"/>
						<g>
							
								<linearGradient id="SVGID_00000130609159671288094250000006300092491243199900_" gradientUnits="userSpaceOnUse" x1="1133.0553" y1="6588.3198" x2="1388.0911" y2="6761.5513" gradientTransform="matrix(0.7331 -0.6801 0.6801 0.7331 -3102.4934 -2251.2249)">
								<stop  offset="0" style="stop-color:#FEBBBA"/>
								<stop  offset="1" style="stop-color:#FF928E"/>
							</linearGradient>
							<path style="fill:url(#SVGID_00000130609159671288094250000006300092491243199900_);" d="M2228.106,1705.023
								c0,0-23.419,51.975,2.016,131.897c25.435,79.921,68.816,87.472,96.643,68.218c27.827-19.255,64.052-53.861,69.554-125.836
								C2401.823,1707.326,2260.278,1639.32,2228.106,1705.023z"/>
							
								<linearGradient id="SVGID_00000145037088810841176180000015703218955437412754_" gradientUnits="userSpaceOnUse" x1="1303.1833" y1="6381.1167" x2="1207.9636" y2="6881.3574" gradientTransform="matrix(0.7331 -0.6801 0.6801 0.7331 -3102.4934 -2251.2249)">
								<stop  offset="0" style="stop-color:#09005D"/>
								<stop  offset="1" style="stop-color:#1A0F91"/>
							</linearGradient>
							<path style="fill:url(#SVGID_00000145037088810841176180000015703218955437412754_);" d="M2342.654,1773.824
								c0,0-46.466-108.344-119.523-42.357l-5.97,27.622c0,0-68.345-20.564-44.871-82.424
								c23.474-61.861,90.846-91.253,163.659-49.86c72.813,41.393,112.332,77.657,107.551,134.215
								c-4.78,56.558-46.928,36.558-46.928,36.558s-7.551-41.745-27.377-49.435s-19.864,23.823-19.864,23.823L2342.654,1773.824z"/>
							
								<linearGradient id="SVGID_00000005954245325025636410000016120197514466893986_" gradientUnits="userSpaceOnUse" x1="1148.3425" y1="6565.8149" x2="1403.3768" y2="6739.0454" gradientTransform="matrix(0.7331 -0.6801 0.6801 0.7331 -3102.4934 -2251.2249)">
								<stop  offset="0" style="stop-color:#FEBBBA"/>
								<stop  offset="1" style="stop-color:#FF928E"/>
							</linearGradient>
							<path style="fill:url(#SVGID_00000005954245325025636410000016120197514466893986_);" d="M2359.157,1775.381
								c0,0-24.211-55.554,10.871-57.032c35.083-1.478,20.008,53.503,12.725,73.538L2359.157,1775.381z"/>
						</g>
						
							<linearGradient id="SVGID_00000119114054682638878300000002675105674497118087_" gradientUnits="userSpaceOnUse" x1="3828.27" y1="1853.1666" x2="4370.4961" y2="1853.1666" gradientTransform="matrix(0.9849 0.1732 -0.1732 0.9849 -969.506 -75.1231)">
							<stop  offset="0" style="stop-color:#FEBBBA"/>
							<stop  offset="1" style="stop-color:#FF928E"/>
						</linearGradient>
						<path style="fill:url(#SVGID_00000119114054682638878300000002675105674497118087_);" d="M2143.062,2377.74l84.125-56.677
							l92.11,59.539c0,0,96.346,32.768,155.733,27.395c59.387-5.374,59.387-5.374,59.387-5.374l135.117-17.346l10.117,60.399
							c2.568,15.334-5.384,30.458-19.427,37.133c-12.468,5.925-26.981,12.295-35.898,14.461
							c-18.168,4.413-414.962-78.259-414.962-78.259L2143.062,2377.74z"/>
					</g>
					<g>
						
							<linearGradient id="SVGID_00000074403746870622869750000009424304917053162880_" gradientUnits="userSpaceOnUse" x1="3589.76" y1="2625.7002" x2="3248.4204" y2="2719.2522" gradientTransform="matrix(0.9988 -0.0494 0.0494 0.9988 -1145.9288 -55.0328)">
							<stop  offset="0" style="stop-color:#09005D"/>
							<stop  offset="1" style="stop-color:#1A0F91"/>
						</linearGradient>
						<path style="fill:url(#SVGID_00000074403746870622869750000009424304917053162880_);" d="M2497.356,2502.747
							c-0.324,0.016-0.648,0.025-0.975,0.022l-423.653-0.462c-10.473-0.008-18.953-8.508-18.943-18.981
							c0.01-10.477,8.54-19.131,18.985-18.943l423.653,0.462c10.473,0.009,18.954,8.508,18.943,18.981
							C2515.354,2493.972,2507.376,2502.251,2497.356,2502.747z"/>
						
							<linearGradient id="SVGID_00000131347030301156030930000005393882006197009334_" gradientUnits="userSpaceOnUse" x1="3211.7061" y1="2169.6738" x2="2969.5103" y2="2425.6602" gradientTransform="matrix(1 0 0 1 -1104.4598 0)">
							<stop  offset="0" style="stop-color:#09005D"/>
							<stop  offset="1" style="stop-color:#1A0F91"/>
						</linearGradient>
						<path style="fill:url(#SVGID_00000131347030301156030930000005393882006197009334_);" d="M1691.882,2118.095h352.822
							c26.027,0,49.718,15.021,60.82,38.562l163.109,345.863H1830.17c-16.773,0-31.843-10.248-38.008-25.847l-126.484-320.045
							C1658.37,2138.136,1671.998,2118.095,1691.882,2118.095z"/>
						<path style="fill:#91B3FA;" d="M1940.449,2295.43c7.646,23.754,1.997,46.823-12.616,51.527
							c-14.613,4.703-32.657-10.74-40.303-34.495c-7.646-23.754-1.997-46.823,12.616-51.527
							C1914.759,2256.232,1932.803,2271.676,1940.449,2295.43z"/>
					</g>
				</g>
				<g>
					
						<linearGradient id="SVGID_00000086670688041213824750000007582792404816383920_" gradientUnits="userSpaceOnUse" x1="11132.6943" y1="3221.158" x2="11217.1582" y2="2689.8513" gradientTransform="matrix(-1 0 0 1 13675.626 0)">
						<stop  offset="0" style="stop-color:#4F52FF"/>
						<stop  offset="1" style="stop-color:#4042E2"/>
					</linearGradient>
					<polygon style="fill:url(#SVGID_00000086670688041213824750000007582792404816383920_);" points="2492.886,3240.572 
						2531.966,3240.572 2531.966,2817.954 2492.886,2817.954 					"/>
					
						<linearGradient id="SVGID_00000109016898133850911380000002416575963487482303_" gradientUnits="userSpaceOnUse" x1="11165.2334" y1="3224.0872" x2="11253.4941" y2="2668.8984" gradientTransform="matrix(-1 0 0 1 13675.626 0)">
						<stop  offset="0" style="stop-color:#4F52FF"/>
						<stop  offset="1" style="stop-color:#4042E2"/>
					</linearGradient>
					<path style="fill:url(#SVGID_00000109016898133850911380000002416575963487482303_);" d="M2341.288,3248.719h342.277v-23.541
						c0-1.048-0.85-1.897-1.897-1.897h-338.334c-1.129,0-2.045,0.916-2.045,2.045V3248.719z"/>
					
						<linearGradient id="SVGID_00000147180712915501004680000000225339091309545149_" gradientUnits="userSpaceOnUse" x1="2299.8896" y1="3097.2512" x2="2739.9172" y2="2422.0933">
						<stop  offset="0" style="stop-color:#4F52FF"/>
						<stop  offset="1" style="stop-color:#4042E2"/>
					</linearGradient>
					<path style="fill:url(#SVGID_00000147180712915501004680000000225339091309545149_);" d="M2276.561,2802.365
						c0,24.565,20.098,44.663,44.663,44.663h368.029c24.565,0,44.664-20.099,44.664-44.663v-40.385
						c0-24.565-20.099-44.663-44.664-44.663h-368.029c-24.565,0-44.663,20.099-44.663,44.663V2802.365z"/>
				</g>
			</g>
			<g>
				<g>
					<path style="fill:#7D97F4;" d="M2848.747,3238.31c1.726,0,3.479-0.377,5.167-1.167c6.641-3.118,9.708-11.522,6.852-18.77
						l-274.523-696.554c-2.855-7.246-10.55-10.592-17.197-7.478c-6.641,3.118-9.709,11.522-6.852,18.77l274.523,696.554
						C2838.846,3235.071,2843.674,3238.31,2848.747,3238.31z"/>
					<path style="fill:#7D97F4;" d="M2539.485,3238.31c5.073,0,9.9-3.237,12.031-8.646l274.523-696.554
						c2.857-7.248-0.211-15.651-6.852-18.77c-6.636-3.118-14.338,0.228-17.197,7.478l-274.523,696.554
						c-2.857,7.248,0.211,15.651,6.852,18.77C2536.004,3237.933,2537.759,3238.31,2539.485,3238.31z"/>
					<path style="fill:#7D97F4;" d="M1680.216,3238.31c1.726,0,3.479-0.377,5.166-1.167c6.641-3.118,9.708-11.522,6.851-18.77
						l-274.523-696.554c-2.857-7.246-10.548-10.592-17.197-7.478c-6.641,3.118-9.708,11.522-6.852,18.77l274.523,696.554
						C1670.316,3235.071,1675.144,3238.31,1680.216,3238.31z"/>
					<path style="fill:#7D97F4;" d="M1370.957,3238.31c5.073,0,9.9-3.237,12.031-8.646l274.523-696.554
						c2.857-7.248-0.211-15.651-6.852-18.77c-6.636-3.118-14.338,0.228-17.197,7.478l-274.523,696.554
						c-2.857,7.248,0.211,15.651,6.852,18.77C1367.475,3237.933,1369.231,3238.31,1370.957,3238.31z"/>
				</g>
				<path style="fill:#7D97F4;" d="M1338.822,2501.767c-0.903-4.052,0.326-8.243,3.351-11.427c3.025-3.184,7.528-5.028,12.281-5.028
					h1609.904c6.25,0,12.069,2.767,15.436,7.34s3.819,10.321,1.198,15.249l-17.446,32.793c-3.995,7.51-12.651,12.318-22.176,12.318
					H1365.5c-8.86,0-16.476-5.457-18.159-13.012L1338.822,2501.767z"/>
			</g>
		</g>
		<g>
			<g>
				<g>
					<g>
						<path style="fill:#91B3FA;" d="M2593.778,1193.61c0,0-121.266-280.143-29.454-575.28c0.6-1.927,4.01-1.557,4.261,0.467
							C2590.719,797.299,2597.318,990.617,2593.778,1193.61z"/>
						
							<linearGradient id="SVGID_00000121968538958948757110000018296857849959733899_" gradientUnits="userSpaceOnUse" x1="2556.9985" y1="940.1058" x2="2594.8547" y2="940.1058">
							<stop  offset="0" style="stop-color:#DAE3FE"/>
							<stop  offset="1" style="stop-color:#E9EFFD"/>
						</linearGradient>
						<path style="fill:url(#SVGID_00000121968538958948757110000018296857849959733899_);" d="M2593.295,1187.712
							c-0.68,0-1.305-0.447-1.498-1.135c-21.513-76.431-29.696-206.307-32.771-301.798c-3.331-103.412-1.559-189.896-1.541-190.757
							c0.018-0.858,0.59-1.533,1.591-1.524c0.859,0.018,1.542,0.73,1.524,1.591c-0.018,0.861-1.789,87.275,1.539,190.605
							c3.071,95.315,11.227,224.91,32.656,301.037c0.233,0.827-0.249,1.688-1.078,1.922
							C2593.578,1187.694,2593.435,1187.712,2593.295,1187.712z"/>
					</g>
					<g>
						<path style="fill:#91B3FA;" d="M2621.547,1147.955c0,0-74.913-343.728,66.665-691.562c0.924-2.271,4.288-1.606,4.201,0.837
							C2684.778,672.658,2659.064,904.837,2621.547,1147.955z"/>
						
							<linearGradient id="SVGID_00000018226940163923008090000017346415122449687685_" gradientUnits="userSpaceOnUse" x1="2617.9382" y1="842.9072" x2="2671.7986" y2="842.9072">
							<stop  offset="0" style="stop-color:#DAE3FE"/>
							<stop  offset="1" style="stop-color:#E9EFFD"/>
						</linearGradient>
						<path style="fill:url(#SVGID_00000018226940163923008090000017346415122449687685_);" d="M2622.309,1140.543
							c-0.794,0-1.472-0.605-1.548-1.411c-16.861-177.866,47.291-588.417,47.94-592.544c0.134-0.846,0.92-1.436,1.781-1.296
							c0.85,0.134,1.431,0.931,1.297,1.782c-0.649,4.122-64.741,414.289-47.919,591.766c0.082,0.855-0.546,1.615-1.402,1.697
							C2622.408,1140.54,2622.358,1140.543,2622.309,1140.543z"/>
					</g>
					<g>
						<path style="fill:#91B3FA;" d="M2633.435,1241.157c0,0-35.891-299.856,142.401-569.701c1.164-1.762,4.411-0.684,4.055,1.351
							C2748.495,852.302,2697.396,1043.055,2633.435,1241.157z"/>
						
							<linearGradient id="SVGID_00000142860640574365987710000007091024450464771485_" gradientUnits="userSpaceOnUse" x1="2633.6245" y1="989.1403" x2="2749.6343" y2="989.1403">
							<stop  offset="0" style="stop-color:#DAE3FE"/>
							<stop  offset="1" style="stop-color:#E9EFFD"/>
						</linearGradient>
						<path style="fill:url(#SVGID_00000142860640574365987710000007091024450464771485_);" d="M2635.182,1235.31
							c-0.011,0-0.021,0-0.021,0c-0.87-0.018-1.553-0.73-1.536-1.588c1.597-79.382,32.235-208.317,57.657-302.5
							c27.531-101.994,55.04-186.337,55.315-187.177c0.266-0.818,1.147-1.265,1.963-0.998c0.818,0.268,1.264,1.147,0.996,1.965
							c-0.274,0.84-27.761,85.118-55.271,187.037c-25.375,94.01-55.957,222.671-57.546,301.734
							C2636.723,1234.632,2636.028,1235.31,2635.182,1235.31z"/>
					</g>
				</g>
				<path style="fill:#7D97F4;" d="M2542.402,1075.199h164.82c12.337,0,21.565,11.612,19.275,23.733
					c-9.841,52.086-29.773,98.104-50.49,136.603c-4.628,8.6-13.59,14.093-23.357,14.093h-53.782
					c-9.917,0-19.011-5.393-23.788-14.083c-25.859-47.053-38.498-93.744-49.043-139.432
					C2523.606,1085.587,2531.598,1075.199,2542.402,1075.199z"/>
			</g>
			<g>
				<g>
					<g>
						<path style="fill:#BDD0FB;" d="M2190.052,808.993c0,0-12.964-80.666,26.635-106.759c1.761-1.16,4.116,0.159,4.116,2.268
							v15.335c0,3.665,4.365,5.554,7.032,3.04c8.528-8.035,23.78-20.239,39.954-22.781c4.315-0.678,7.681,3.627,5.83,7.583
							c-9.922,21.21-35.901,80.649-34.906,119.589L2190.052,808.993z"/>
						<path style="fill:#7D97F4;" d="M2148.007,808.971l-26.509,423.793h158.846v-411.96c0-11.85-7.559-22.343-18.772-26.176
							c-21.02-7.184-56.759-16.15-91.857-9.917C2157.75,786.837,2148.765,796.841,2148.007,808.971z"/>
						<path style="opacity:0.38;fill:#FFFFFF;" d="M2148.428,1075.864l-5.381,118.169c-0.446,9.794,7.374,17.978,17.178,17.978
							h80.244c9.497,0,17.196-7.699,17.196-17.196v-118.169c0-9.497-7.699-17.196-17.196-17.196h-74.863
							C2156.413,1059.451,2148.846,1066.681,2148.428,1075.864z"/>
					</g>
					<g>
						<path style="fill:#91B3FA;" d="M2433.297,1198.894V794.688c0-10.931-7.096-20.664-17.55-23.858
							c-46.77-14.291-87.45-6.288-108.803,0.349c-9.463,2.941-15.925,11.661-15.925,21.571v440.014h108.407
							C2418.133,1232.764,2433.297,1217.6,2433.297,1198.894z"/>
						<path style="opacity:0.38;fill:#FFFFFF;" d="M2305.099,802.007l3.451,64.671c0.43,8.059,7.09,14.373,15.16,14.373h76.185
							c8.193,0,14.908-6.501,15.174-14.689l2.073-63.812c0.238-7.316-4.762-13.78-11.917-15.323
							c-18.506-3.99-54.915-9.491-88.613-0.775C2309.56,788.276,2304.71,794.733,2305.099,802.007z"/>
						<path style="opacity:0.38;fill:#FFFFFF;" d="M2311.018,908.922L2311.018,908.922c0.551,7.959,7.167,14.134,15.146,14.134
							h72.939c8.504,0,15.35-6.985,15.179-15.487l0,0c-0.166-8.264-6.913-14.877-15.179-14.877h-72.939
							C2317.366,892.692,2310.41,900.145,2311.018,908.922z"/>
					</g>
					<path style="fill:#7D97F4;" d="M1797.052,796.379l-5.605,434.484h252.465l-18.903-422.92
						c-0.546-12.208-8.429-22.84-19.937-26.954c-31.373-11.215-99.7-27.654-192.223-4.555
						C1803.671,778.726,1797.174,786.92,1797.052,796.379z"/>
					<g>
						<path style="fill:#91B3FA;" d="M1949.092,806.923l17.624,425.422h150.468l11.405-430.181
							c0.313-11.823-7.242-22.523-18.57-25.924c-48.927-14.689-97.526-16.13-145.546,5.81
							C1954.775,786.48,1948.65,796.271,1949.092,806.923z"/>
						<path style="opacity:0.57;fill:#FFFFFF;" d="M1962.795,822.889l1.791,23.131c0.543,7.007,6.595,12.291,13.611,11.883
							l122.934-7.153c6.454-0.375,11.633-5.47,12.115-11.916l1.195-15.978c0.56-7.483-5.361-13.863-12.864-13.863h-125.921
							C1968.139,808.993,1962.214,815.394,1962.795,822.889z"/>
						<path style="opacity:0.57;fill:#FFFFFF;" d="M1967.869,878.165v8.443c0,6.519,5.428,11.726,11.942,11.454l117.763-4.911
							c6.14-0.256,10.986-5.308,10.986-11.454v-8.955c0-6.538-5.46-11.753-11.991-11.452l-117.763,5.424
							C1972.686,866.995,1967.869,872.038,1967.869,878.165z"/>
					</g>
				</g>
				<path style="fill:#BDD0FB;" d="M2765.722,1355.432h-983.757c-20.462,0-37.05-16.588-37.05-37.05v-50.678
					c0-20.462,16.588-37.05,37.05-37.05h983.757c20.462,0,37.05,16.588,37.05,37.05v50.678
					C2802.772,1338.844,2786.184,1355.432,2765.722,1355.432z"/>
			</g>
		</g>
		<g>
			<g>
				<path style="fill:#91B3FA;" d="M2766.68,1796.263c-1.855-3.377-6.961-2.195-7.063,1.656
					c-1.601,60.531-0.16,276.737,96.853,363.806c113.354,101.736,189.305,119.493,187.761,311.322
					c-1.528,189.813-25.657,528.876,12.668,624.741c0.722,1.808,2.408,3.041,4.351,3.157l0,0c3.215,0.192,5.767-2.657,5.213-5.83
					c-5.065-28.998-25.368-154.632-19.055-271.985c7.194-133.721,66.069-471.421-8.354-720.979
					C2969.313,1868.29,2813.188,1880.93,2766.68,1796.263z"/>
				<path style="fill:#91B3FA;" d="M3054.29,3146.703c-2.642-0.273-4.779-2.248-5.239-4.865
					c-4.937-28.077-29.853-183.557,7.27-269.745c40.915-94.99,111.428-185.722,58.214-401.139
					c-30.147-122.039-21.694-190.367-16.628-214.214c0.766-3.608,5.575-4.357,7.372-1.136
					c22.472,40.282,116.343,209.979,132.923,263.383c18.864,60.756,37.064,180.274-56.333,242.229
					c-91.93,60.981-124.406,198.214-121.237,378.05C3060.857,3151.991,3058.425,3147.129,3054.29,3146.703L3054.29,3146.703z"/>
				<path style="fill:#BDD0FB;" d="M3022.574,3027.037c3.833,0.313,11.908,32.777,13.65,28.662
					c15.464-36.504,78.344-248.391-2.205-393.097c-84.003-150.914-162.867-182.645-167.914-263.043
					c-0.308-4.912-5.777-6.247-7.687-1.831c-27.115,62.663-108.667,282.827,18.388,414.75
					c126.07,130.9,140.006,177.937,137.201,202.181C3013.276,3020.981,3017.242,3026.601,3022.574,3027.037L3022.574,3027.037z"/>
				<path style="opacity:0.47;fill:#FFFFFF;" d="M2818.615,1894.067c9.232,5.594,18.019,11.765,26.598,18.25
					c8.603,6.449,16.936,13.255,25.074,20.289c8.173,7,16.004,14.384,23.78,21.83c3.87,3.742,7.575,7.648,11.373,11.467
					c3.745,3.869,7.382,7.841,11.08,11.76c14.46,15.969,28.115,32.697,40.682,50.221l4.74,6.552l4.547,6.688
					c2.98,4.493,6.145,8.865,8.946,13.476l8.601,13.704l8.108,14.004c10.432,18.883,20.059,38.23,28.243,58.205
					c2.126,4.957,3.866,10.074,5.815,15.101l2.848,7.571c0.908,2.539,1.697,5.121,2.55,7.679c1.661,5.131,3.384,10.241,4.991,15.386
					l4.282,15.597c1.516,5.174,2.621,10.454,3.783,15.716c1.111,5.273,2.456,10.493,3.371,15.802
					c1.794,10.625,3.757,21.214,4.751,31.941c2.774,21.347,3.31,42.896,3.12,64.33c-0.009,0.966-0.798,1.742-1.764,1.734
					c-0.936-0.009-1.694-0.751-1.732-1.677l-0.002-0.046c-1.659-42.556-7.938-84.833-19.945-125.474l-4.588-15.205l-5.213-14.998
					c-0.889-2.491-1.712-5.007-2.655-7.479l-2.951-7.37c-2.017-4.892-3.819-9.869-6.007-14.688
					c-8.296-19.471-17.927-38.348-28.379-56.74c-20.993-36.77-46.228-71.021-74.067-102.963c-3.518-3.961-6.977-7.979-10.546-11.899
					c-3.616-3.874-7.165-7.817-10.84-11.64c-7.273-7.722-14.701-15.309-22.329-22.697c-15.182-14.842-30.969-29.18-47.539-42.531
					l-0.035-0.028c-0.491-0.396-0.569-1.115-0.173-1.606C2817.497,1893.877,2818.133,1893.775,2818.615,1894.067z"/>
				<path style="opacity:0.47;fill:#FFFFFF;" d="M2856.969,2457.194c-0.275,23.162,3.768,46.077,10.475,68.155
					c3.365,11.039,7.521,21.84,12.48,32.245c4.911,10.427,10.571,20.5,17.046,29.977c6.468,9.47,13.501,18.569,21.36,26.821
					c7.865,8.239,16.323,15.823,25.224,22.75l6.779,5.041l6.433,4.689c2.16,1.509,4.214,3.165,6.267,4.822
					c2.047,1.665,4.161,3.242,6.107,5.035c8.068,6.815,15.505,14.413,22.384,22.511c27.878,32.23,44.037,74.754,48.208,118.859
					c4.566,44.231-1.042,89.565-11.418,133.39c-0.265,1.096,0.353,2.214,1.381,2.497c0.974,0.268,1.971-0.328,2.298-1.322
					c3.461-10.802,6.689-21.723,9.323-32.833c2.612-11.112,4.86-22.344,6.658-33.692c1.77-11.354,2.955-22.835,3.526-34.382
					c0.619-11.545,0.566-23.169-0.219-34.77c-1.6-23.169-5.964-46.416-14.281-68.239c-8.167-21.834-19.831-42.369-34.687-59.847
					c-7.37-8.776-15.339-16.99-23.932-24.338c-2.083-1.93-4.323-3.633-6.502-5.424c-2.186-1.782-4.374-3.562-6.661-5.183
					l-13.12-9.575c-16.769-12.689-31.788-27.964-44.43-45.348c-6.282-8.718-12.08-17.872-17.258-27.454
					c-5.133-9.606-9.705-19.593-13.734-29.861c-7.871-20.57-13.796-42.367-16.576-64.602l-0.015-0.123
					c-0.114-0.913-0.9-1.554-1.756-1.431C2857.545,2455.672,2856.978,2456.378,2856.969,2457.194z"/>
			</g>
			<path style="fill:#7D97F4;" d="M2909.937,3018.359h223.605c16.737,0,29.256,15.753,26.149,32.198
				c-13.351,70.664-40.393,133.095-68.499,185.324c-6.279,11.668-18.437,19.119-31.688,19.119h-72.965
				c-13.454,0-25.792-7.316-32.272-19.106c-35.082-63.836-52.228-127.18-66.534-189.162
				C2884.436,3032.451,2895.28,3018.359,2909.937,3018.359z"/>
		</g>
	</g>
</g>
</svg>
